<?xml version="1.0" encoding="UTF-8" standalone="no"?>
<svg
   xmlns:dc="http://purl.org/dc/elements/1.1/"
   xmlns:cc="http://creativecommons.org/ns#"
   xmlns:rdf="http://www.w3.org/1999/02/22-rdf-syntax-ns#"
   xmlns:svg="http://www.w3.org/2000/svg"
   xmlns="http://www.w3.org/2000/svg"
   xmlns:sodipodi="http://sodipodi.sourceforge.net/DTD/sodipodi-0.dtd"
   xmlns:inkscape="http://www.inkscape.org/namespaces/inkscape"
   version="1.0"
   viewBox="0 0 7220 4500"
   preserveAspectRatio="xMinYMin"
   id="svg122"
   sodipodi:docname="front.svg"
   inkscape:version="0.92.3 (2405546, 2018-03-11)">
  <metadata
     id="metadata128">
    <rdf:RDF>
      <cc:Work
         rdf:about="">
        <dc:format>image/svg+xml</dc:format>
        <dc:type
           rdf:resource="http://purl.org/dc/dcmitype/StillImage" />
        <dc:title></dc:title>
      </cc:Work>
    </rdf:RDF>
  </metadata>
  <defs
     id="defs126" />
  <sodipodi:namedview
     pagecolor="#000000"
     bordercolor="#666666"
     borderopacity="1"
     objecttolerance="10"
     gridtolerance="10"
     guidetolerance="10"
     inkscape:pageopacity="0"
     inkscape:pageshadow="2"
     inkscape:window-width="1920"
     inkscape:window-height="1137"
     id="namedview124"
     showgrid="false"
     inkscape:pagecheckerboard="false"
     inkscape:zoom="2.7344074"
     inkscape:cx="118.94418"
     inkscape:cy="270.08563"
     inkscape:window-x="-8"
     inkscape:window-y="-8"
     inkscape:window-maximized="1"
     inkscape:current-layer="svg122" />
  <g
     id="layer101"
     fill="#282828"
     stroke="none">
    <path
       d="M3445 2439 c-127 -42 -206 -46 -1370 -64 -550 -9 -1107 -20 -1237 -23 -312 -9 -305 -4 -367 -252 -21 -85 -46 -175 -55 -200 -17 -49 -13 -58 24 -62 22 -3 27 4 52 82 16 47 41 130 56 185 24 89 31 102 57 115 39 19 447 17 1070 -4 242 -9 645 -23 895 -31 620 -22 619 -21 874 -198 22 -15 63 -34 92 -43 35 -10 53 -21 57 -34 7 -26 37 -26 44 0 4 13 19 24 47 31 54 15 86 32 160 86 76 57 132 85 221 113 73 22 182 31 600 44 99 4 232 9 295 11 333 15 1091 36 1345 38 238 1 295 -1 320 -13 26 -13 33 -26 57 -115 15 -55 40 -138 56 -185 25 -78 30 -85 52 -82 37 4 41 13 24 62 -9 25 -34 115 -55 200 -62 248 -55 243 -367 252 -130 4 -687 14 -1237 23 -1166 18 -1242 22 -1373 65 -126 41 -212 41 -337 -1z"
       id="path2" />
  </g>
  <g
     id="layer102"
     style="stroke:none;stroke-opacity:1;stroke-width:15;stroke-miterlimit:4;stroke-dasharray:none"
     stroke="none"
     fill="#575757">
    <path
       d="M3187 2393 c18 -2 50 -2 70 0 21 2 7 4 -32 4 -38 0 -55 -2 -38 -4z"
       id="path5"
       style="stroke:none;stroke-opacity:1;stroke-width:15;stroke-miterlimit:4;stroke-dasharray:none" />
    <path
       d="M3963 2393 c20 -2 54 -2 75 0 20 2 3 4 -38 4 -41 0 -58 -2 -37 -4z"
       id="path7"
       style="stroke:none;stroke-opacity:1;stroke-width:15;stroke-miterlimit:4;stroke-dasharray:none" />
    <path
       d="M2663 2383 c26 -2 68 -2 95 0 26 2 4 3 -48 3 -52 0 -74 -1 -47 -3z"
       id="path9"
       style="stroke:none;stroke-opacity:1;stroke-width:15;stroke-miterlimit:4;stroke-dasharray:none" />
    <path
       d="M2823 2383 c9 -2 25 -2 35 0 9 3 1 5 -18 5 -19 0 -27 -2 -17 -5z"
       id="path11"
       style="stroke:none;stroke-opacity:1;stroke-width:15;stroke-miterlimit:4;stroke-dasharray:none" />
    <path
       d="M4203 2383 c9 -2 25 -2 35 0 9 3 1 5 -18 5 -19 0 -27 -2 -17 -5z"
       id="path13"
       style="stroke:none;stroke-opacity:1;stroke-width:15;stroke-miterlimit:4;stroke-dasharray:none" />
    <path
       d="M4278 2383 c12 -2 30 -2 40 0 9 3 -1 5 -23 4 -22 0 -30 -2 -17 -4z"
       id="path15"
       style="stroke:none;stroke-opacity:1;stroke-width:15;stroke-miterlimit:4;stroke-dasharray:none" />
    <path
       d="M4413 2383 c37 -2 97 -2 135 0 37 2 6 3 -68 3 -74 0 -105 -1 -67 -3z"
       id="path17"
       style="stroke:none;stroke-opacity:1;stroke-width:15;stroke-miterlimit:4;stroke-dasharray:none" />
    <path
       d="M2118 2373 c28 -2 76 -2 105 0 28 2 5 3 -53 3 -58 0 -81 -1 -52 -3z"
       id="path19"
       style="stroke:none;stroke-opacity:1;stroke-width:15;stroke-miterlimit:4;stroke-dasharray:none" />
    <path
       d="M2298 2373 c12 -2 32 -2 45 0 12 2 2 4 -23 4 -25 0 -35 -2 -22 -4z"
       id="path21"
       style="stroke:none;stroke-opacity:1;stroke-width:15;stroke-miterlimit:4;stroke-dasharray:none" />
    <path
       d="M2388 2373 c12 -2 30 -2 40 0 9 3 -1 5 -23 4 -22 0 -30 -2 -17 -4z"
       id="path23"
       style="stroke:none;stroke-opacity:1;stroke-width:15;stroke-miterlimit:4;stroke-dasharray:none" />
    <path
       d="M4671 2376 c4 -4 49 -7 100 -8 64 -1 81 -3 54 -7 -50 -8 222 -17 965 -32 358 -7 589 -15 595 -22 7 -6 -91 -7 -290 -3 -421 8 -924 14 -837 9 40 -2 70 -7 68 -12 -7 -11 38 -8 46 4 5 6 8 5 8 -3 0 -8 8 -10 25 -6 14 3 25 2 25 -3 0 -5 54 -10 123 -10 67 -1 221 -4 342 -7 582 -16 645 -15 645 5 0 5 -11 7 -23 5 -13 -2 -30 0 -38 5 -9 6 -1 9 27 9 29 0 44 -5 48 -16 10 -27 7 -34 -16 -35 -13 -1 -4 -5 20 -10 87 -17 94 -24 124 -134 15 -55 40 -138 56 -185 25 -78 30 -85 52 -82 37 4 41 13 24 62 -13 38 -64 232 -88 332 -9 39 -61 95 -99 107 -42 13 -1968 50 -1956 37z m262 -13 c-13 -2 -33 -2 -45 0 -13 2 -3 4 22 4 25 0 35 -2 23 -4z m75 0 c-10 -2 -26 -2 -35 0 -10 3 -2 5 17 5 19 0 27 -2 18 -5z"
       id="path25"
       style="stroke:none;stroke-opacity:1;stroke-width:15;stroke-miterlimit:4;stroke-dasharray:none" />
    <path
       d="M1090 2359 c-239 -5 -449 -11 -467 -14 -35 -6 -87 -45 -104 -77 -6 -10 -28 -88 -49 -171 -21 -84 -45 -172 -54 -197 -17 -49 -13 -58 24 -62 22 -3 27 4 52 82 16 47 41 130 56 185 30 110 37 117 124 134 24 5 33 9 21 10 -13 1 -23 4 -23 9 0 4 78 8 173 8 256 2 548 15 542 25 -3 4 29 10 72 12 43 2 -79 1 -271 -1 -231 -3 -347 -2 -343 5 4 6 151 13 383 17 365 8 455 14 369 27 l-40 6 43 2 c23 0 42 -3 42 -9 0 -5 19 -9 43 -8 l42 1 -40 6 c-30 4 -17 7 55 11 144 9 -124 9 -650 -1z m338 -16 c-10 -2 -26 -2 -35 0 -10 3 -2 5 17 5 19 0 27 -2 18 -5z m90 0 c-10 -2 -26 -2 -35 0 -10 3 -2 5 17 5 19 0 27 -2 18 -5z"
       id="path27"
       style="stroke:none;stroke-opacity:1;stroke-width:15;stroke-miterlimit:4;stroke-dasharray:none" />
    <path
       d="M1858 2363 c12 -2 30 -2 40 0 9 3 -1 5 -23 4 -22 0 -30 -2 -17 -4z"
       id="path29"
       style="stroke:none;stroke-opacity:1;stroke-width:15;stroke-miterlimit:4;stroke-dasharray:none" />
    <path
       d="M3520 2350 c-16 -16 -18 -25 -10 -40 6 -11 16 -20 22 -20 6 0 4 8 -6 19 -16 17 -16 20 0 35 15 16 18 16 36 0 16 -16 18 -16 13 -2 -10 26 -34 29 -55 8z"
       id="path31"
       style="stroke:none;stroke-opacity:1;stroke-width:15;stroke-miterlimit:4;stroke-dasharray:none;fill:#f2f2f2" />
    <path
       d="M3666 2354 c-22 -22 -20 -31 3 -10 18 16 20 16 36 0 17 -17 16 -19 -5 -36 -17 -14 -18 -18 -6 -18 8 0 20 9 26 21 9 16 8 25 -6 40 -21 23 -28 24 -48 3z"
       id="path33"
       style="stroke:none;stroke-opacity:1;stroke-width:15;stroke-miterlimit:4;stroke-dasharray:none;fill:#ececec" />
    <path
       d="M2565 2300 c-4 -6 -33 -10 -64 -9 -32 1 -63 -1 -69 -5 -7 -4 -12 -2 -12 3 0 6 -5 11 -11 11 -5 0 -7 -6 -3 -12 6 -10 4 -10 -7 0 -7 6 -18 12 -23 12 -6 0 -4 -5 4 -10 22 -14 -5 -13 -32 1 -13 7 -18 7 -14 1 4 -7 -37 -11 -121 -11 -71 -1 -155 -3 -188 -5 -33 -3 -265 -10 -515 -16 -250 -6 -459 -13 -465 -15 -30 -9 59 -14 425 -24 223 -7 590 -19 817 -27 227 -8 431 -13 455 -11 24 2 -8 4 -69 5 -68 1 -113 6 -113 12 0 6 9 10 19 10 15 0 18 5 14 23 -4 18 -3 20 7 7 10 -13 11 -12 6 4 -4 10 -1 25 6 33 10 12 7 13 -17 7 -24 -6 -27 -4 -22 10 7 18 2 22 -8 6z"
       id="path35"
       style="stroke:none;stroke-opacity:1;stroke-width:15;stroke-miterlimit:4;stroke-dasharray:none" />
    <path
       d="M2608 2303 c12 -2 30 -2 40 0 9 3 -1 5 -23 4 -22 0 -30 -2 -17 -4z"
       id="path37"
       style="stroke:none;stroke-opacity:1;stroke-width:15;stroke-miterlimit:4;stroke-dasharray:none" />
    <path
       d="M2800 2283 c0 -12 3 -14 8 -7 4 7 16 14 27 17 15 4 14 5 -7 6 -21 1 -28 -4 -28 -16z"
       id="path39"
       style="stroke:none;stroke-opacity:1;stroke-width:15;stroke-miterlimit:4;stroke-dasharray:none" />
    <path
       d="M4389 2290 c23 -13 -9 -28 -72 -33 -53 -4 -66 -3 -58 7 7 9 4 12 -12 14 -13 1 -29 -8 -39 -21 -16 -21 -27 -22 -175 -28 -139 -5 -165 -8 -221 -31 -62 -26 -63 -26 -56 -5 6 19 5 20 -9 9 -14 -12 -20 -10 -39 11 l-23 24 -22 -27 c-19 -24 -21 -30 -8 -46 9 -13 10 -23 3 -31 -6 -7 -11 -29 -13 -48 -2 -31 1 -35 24 -36 26 -1 25 -1 -4 -10 -27 -9 -107 -5 -138 6 -6 3 -20 -9 -30 -26 -14 -25 -22 -30 -42 -27 -14 3 -25 4 -25 2 0 -7 77 -42 116 -53 28 -7 43 -18 47 -31 3 -11 13 -20 22 -20 9 0 19 9 22 20 4 13 19 24 47 31 51 14 112 44 122 61 5 9 1 8 -12 -2 -16 -12 -17 -12 -6 0 7 8 20 15 30 15 9 0 17 7 17 15 0 8 9 15 20 15 11 0 19 5 18 12 -2 7 3 10 11 7 8 -3 17 0 22 7 5 8 3 10 -6 4 -9 -5 -11 -4 -6 4 4 6 11 9 16 6 13 -8 80 27 73 38 -3 6 -1 7 5 3 6 -4 42 3 79 14 70 22 176 30 603 45 102 3 291 10 420 15 129 5 424 14 655 20 231 7 436 15 455 19 21 4 -67 10 -215 14 -137 4 -479 13 -760 22 -693 20 -847 22 -836 15z m-681 -103 c4 -21 -25 -34 -40 -19 -8 8 -8 16 2 27 16 19 34 15 38 -8z"
       id="path41"
       style="stroke:none;stroke-opacity:1;stroke-width:15;stroke-miterlimit:4;stroke-dasharray:none" />
    <path
       d="M2979 2273 c-1 -5 -1 -12 0 -16 1 -4 -6 -7 -15 -5 -9 2 -19 -3 -21 -10 -4 -9 8 -12 41 -10 51 3 50 2 36 29 -10 18 -39 27 -41 12z"
       id="path43"
       style="stroke:none;stroke-opacity:1;stroke-width:15;stroke-miterlimit:4;stroke-dasharray:none" />
    <path
       d="M3601 2266 c-9 -10 -8 -16 3 -25 10 -9 16 -8 25 3 9 10 8 16 -3 25 -10 9 -16 8 -25 -3z"
       id="path45"
       style="stroke:none;stroke-opacity:1;stroke-width:15;stroke-miterlimit:4;stroke-dasharray:none;fill:#ffffff" />
    <path
       d="M838 2233 c17 -2 47 -2 65 0 17 2 3 4 -33 4 -36 0 -50 -2 -32 -4z"
       id="path47"
       style="stroke:none;stroke-opacity:1;stroke-width:15;stroke-miterlimit:4;stroke-dasharray:none" />
    <path
       d="M3540 2229 c0 -7 8 -21 17 -31 20 -22 5 -45 -22 -34 -13 5 -16 13 -11 34 6 25 5 26 -9 8 -14 -19 -15 -19 -35 -1 -24 22 -26 8 -4 -24 16 -22 16 -23 -5 -12 -11 7 -21 8 -21 2 0 -13 -31 -23 -44 -13 -19 16 -66 23 -66 11 0 -14 46 -59 95 -92 42 -28 61 -34 49 -16 -4 7 -1 10 7 7 16 -5 63 47 55 61 -3 5 1 11 8 14 31 12 35 41 10 70 -13 16 -24 23 -24 16z"
       id="path49"
       style="stroke:none;stroke-opacity:1;stroke-width:15;stroke-miterlimit:4;stroke-dasharray:none" />
    <path
       d="M6328 2233 c17 -2 47 -2 65 0 17 2 3 4 -33 4 -36 0 -50 -2 -32 -4z"
       id="path51"
       style="stroke:none;stroke-opacity:1;stroke-width:15;stroke-miterlimit:4;stroke-dasharray:none" />
    <path
       d="M2868 2173 c28 -2 76 -2 105 0 28 2 5 3 -53 3 -58 0 -81 -1 -52 -3z"
       id="path53"
       style="stroke:none;stroke-opacity:1;stroke-width:15;stroke-miterlimit:4;stroke-dasharray:none" />
    <path
       inkscape:connector-curvature="0"
       d="m 3540,2229 c 0,-7 8,-21 17,-31 20,-22 5,-45 -22,-34 -13,5 -16,13 -11,34 6,25 5,26 -9,8 -12.1213,-55.0379 10.2673,-55.8162 34.4746,-59.1211 31,12 39.5254,37.1211 14.5254,66.1211 -13,16 -24,23 -24,16 z"
       id="path49-6"
       style="stroke:none;stroke-width:15;stroke-miterlimit:4;stroke-dasharray:none;stroke-opacity:1;fill:#ffffff"
       sodipodi:nodetypes="sccccccs" />
    <path
       inkscape:connector-curvature="0"
       d="m 3688.1625,2229.4741 c 0,-7 -8,-21 -17,-31 -20,-22 -5,-45 22,-34 13,5 16,13 11,34 -6,25 -5,26 9,8 12.1213,-55.0379 -10.2673,-55.8162 -34.4746,-59.1211 -31,12 -39.5254,37.1211 -14.5254,66.1211 13,16 24,23 24,16 z"
       id="path49-6-0"
       style="fill:#ffffff;stroke:none;stroke-width:15;stroke-miterlimit:4;stroke-dasharray:none;stroke-opacity:1"
       sodipodi:nodetypes="sccccccs" />
  </g>
  <g
     id="layer103"
     stroke="none"
     fill="#9d9d9d">
    <path
       d="M3188 2393 c18 -2 45 -2 60 0 15 2 0 4 -33 4 -33 0 -45 -2 -27 -4z"
       id="path56" />
    <path
       d="M3988 2393 c18 -2 45 -2 60 0 15 2 0 4 -33 4 -33 0 -45 -2 -27 -4z"
       id="path58" />
    <path
       d="M4973 2373 c9 -2 25 -2 35 0 9 3 1 5 -18 5 -19 0 -27 -2 -17 -5z"
       id="path60" />
    <path
       d="M1578 2363 c12 -2 30 -2 40 0 9 3 -1 5 -23 4 -22 0 -30 -2 -17 -4z"
       id="path62" />
    <path
       d="M1663 2363 c9 -2 25 -2 35 0 9 3 1 5 -18 5 -19 0 -27 -2 -17 -5z"
       id="path64" />
    <path
       d="M5443 2363 c9 -2 25 -2 35 0 9 3 1 5 -18 5 -19 0 -27 -2 -17 -5z"
       id="path66" />
    <path
       d="M5518 2363 c12 -2 32 -2 45 0 12 2 2 4 -23 4 -25 0 -35 -2 -22 -4z"
       id="path68" />
    <path
       d="M5608 2363 c12 -2 32 -2 45 0 12 2 2 4 -23 4 -25 0 -35 -2 -22 -4z"
       id="path70" />
    <path
       d="M967 2353 c18 -2 50 -2 70 0 21 2 7 4 -32 4 -38 0 -55 -2 -38 -4z"
       id="path72" />
    <path
       d="M1118 2353 c12 -2 30 -2 40 0 9 3 -1 5 -23 4 -22 0 -30 -2 -17 -4z"
       id="path74" />
    <path
       d="M1198 2353 c12 -2 30 -2 40 0 9 3 -1 5 -23 4 -22 0 -30 -2 -17 -4z"
       id="path76" />
    <path
       d="M5988 2353 c12 -2 32 -2 45 0 12 2 2 4 -23 4 -25 0 -35 -2 -22 -4z"
       id="path78" />
    <path
       d="M6078 2353 c12 -2 30 -2 40 0 9 3 -1 5 -23 4 -22 0 -30 -2 -17 -4z"
       id="path80" />
    <path
       d="M6178 2353 c12 -2 32 -2 45 0 12 2 2 4 -23 4 -25 0 -35 -2 -22 -4z"
       id="path82" />
    <path
       d="M595 2336 c-38 -16 -83 -68 -91 -104 -23 -99 -75 -294 -88 -332 -17 -49 -13 -58 24 -62 22 -3 27 4 57 97 18 55 43 136 54 180 11 44 25 85 30 92 6 6 32 17 59 24 41 10 46 14 33 24 -9 6 -27 10 -42 9 -14 -2 -18 -1 -8 2 10 3 22 17 27 30 9 23 14 24 107 26 54 0 82 4 63 6 l-35 6 40 6 c26 5 -3 8 -80 8 -80 1 -130 -3 -150 -12z m168 -3 c-13 -2 -33 -2 -45 0 -13 2 -3 4 22 4 25 0 35 -2 23 -4z m-123 -38 c0 -8 -4 -15 -9 -15 -13 0 -22 16 -14 24 11 11 23 6 23 -9z"
       id="path84" />
    <path
       d="M6497 2341 c113 -5 136 -9 160 -27 19 -14 27 -29 25 -43 -2 -12 2 -29 10 -38 12 -15 11 -15 -12 -1 -14 9 -41 19 -60 23 -19 4 -37 11 -40 16 -3 5 -13 0 -22 -10 -14 -17 -12 -19 33 -30 26 -7 52 -18 58 -24 5 -7 19 -48 30 -92 11 -44 36 -125 54 -180 30 -93 35 -100 57 -97 37 4 41 13 24 62 -9 25 -34 115 -55 200 -59 233 -71 245 -262 246 l-132 1 132 -6z"
       id="path86" />
    <path
       d="M4743 2273 c47 -3 58 -7 53 -19 -3 -9 -1 -12 4 -9 6 3 10 2 10 -3 0 -16 -13 -22 -25 -12 -8 7 -12 5 -12 -5 0 -7 3 -14 6 -13 3 0 13 -1 21 -3 8 -1 -19 -6 -60 -10 -101 -10 278 -2 800 16 234 8 476 15 539 15 63 0 112 3 108 6 -3 3 -205 12 -449 19 -465 14 -1094 26 -995 18z"
       id="path88" />
    <path
       d="M2980 2262 c0 -5 9 -12 21 -15 13 -3 19 -1 16 6 -5 15 -37 22 -37 9z"
       id="path90" />
    <path
       d="M4212 2258 c-19 -19 -14 -23 33 -25 42 -2 54 5 38 20 -3 4 -12 2 -20 -4 -10 -9 -13 -8 -13 5 0 19 -21 21 -38 4z"
       id="path92" />
    <path
       d="M1307 2250 c-136 -4 -249 -9 -252 -12 -3 -3 115 -8 262 -12 148 -3 331 -8 408 -11 88 -3 131 -1 115 4 -18 7 -20 9 -7 10 10 1 16 5 12 10 -3 5 9 12 27 14 51 6 -290 4 -565 -3z"
       id="path94" />
    <path
       d="M4538 2183 c23 -2 61 -2 85 0 23 2 4 4 -43 4 -47 0 -66 -2 -42 -4z"
       id="path96" />
    <path
       d="M3486 2003 c-20 -23 -23 -31 -10 -26 11 4 15 3 11 -4 -8 -12 20 -26 34 -17 5 3 9 1 9 -4 0 -5 13 -12 29 -15 17 -4 30 -14 34 -26 3 -12 13 -21 22 -21 9 0 19 9 22 21 4 12 17 22 34 26 16 3 26 10 23 15 -4 6 2 7 16 3 17 -5 21 -4 15 6 -6 9 -3 11 9 6 11 -5 15 -3 10 5 -5 8 -2 9 10 5 13 -5 10 3 -10 26 l-29 33 -100 0 -100 0 -29 -33z"
       id="path98" />
  </g>
  <g
     id="layer104"
     fill="#e7e7e7"
     stroke="none">
    <path
       d="M544 2298 l-29 -33 33 29 c17 17 32 31 32 33 0 8 -8 1 -36 -29z"
       id="path101" />
    <path
       d="M615 2251 c-40 -10 -69 -26 -86 -48 -13 -17 -12 -17 6 -2 37 30 50 32 17 3 -30 -26 -39 -47 -81 -196 -40 -140 -45 -168 -33 -173 9 -3 19 -2 23 2 9 10 71 203 94 293 9 36 21 70 26 76 5 6 30 17 55 24 31 9 41 16 32 21 -7 5 -15 8 -18 8 -3 -1 -18 -4 -35 -8z"
       id="path103" />
    <path
       d="M6561 2251 c-8 -5 4 -13 33 -21 25 -7 50 -18 55 -24 5 -6 17 -40 26 -76 23 -90 85 -283 94 -293 9 -9 43 2 36 12 -6 10 -87 302 -89 323 -5 47 -115 103 -155 79z"
       id="path105" />
    <path
       d="M5670 2244 c82 -8 198 -8 193 -1 -2 4 -55 6 -116 5 -62 -1 -96 -3 -77 -4z"
       id="path107" />
    <path
       d="M492 2186 c-7 -33 -10 -61 -8 -63 6 -7 28 84 24 103 -2 11 -9 -8 -16 -40z"
       id="path109" />
    <path
       d="M1113 2233 c37 -2 97 -2 135 0 37 2 6 3 -68 3 -74 0 -105 -1 -67 -3z"
       id="path111" />
    <path
       d="M5958 2233 c46 -2 118 -2 160 0 42 1 5 3 -83 3 -88 0 -123 -2 -77 -3z"
       id="path113" />
    <path
       d="M6742 2135 c0 -11 3 -29 8 -40 11 -25 11 1 0 35 -6 20 -8 21 -8 5z"
       id="path115" />
    <path
       d="M3510 2028 c0 -6 -8 -21 -17 -32 l-18 -21 24 20 c18 16 40 20 105 22 101 3 116 5 111 13 -2 4 -26 4 -52 -1 -44 -6 -71 -5 -130 7 -14 3 -23 -1 -23 -8z"
       id="path117" />
    <path
       d="M3603 1914 c-7 -19 2 -28 22 -21 19 8 19 23 0 31 -9 3 -18 -1 -22 -10z"
       id="path119" />
  </g>
  <circle
     id="path144"
     cx="3614.8704"
     cy="2251.9551"
     r="597.35028"
     style="opacity:1;fill:#ffffff;fill-opacity:0.26633169;stroke:#fffaff;stroke-width:16;stroke-opacity:1;stroke-miterlimit:4;stroke-dasharray:none" />
  <g
     transform="translate(-1267.1421,1221.6724)"
     style="fill:#ffffff;stroke:none"
     id="layer101-1" />
  <g
     transform="translate(-1267.1421,1221.6724)"
     id="layer102-4"
     style="fill:#ffffff;stroke:none;stroke-width:15;stroke-miterlimit:4;stroke-dasharray:none;stroke-opacity:1" />
  <g
     transform="translate(-1267.1421,1221.6724)"
     style="fill:#ffffff;stroke:none"
     id="layer103-9" />
  <g
     transform="translate(168.3508,1570.3717)"
     style="fill:#ffffff;stroke:none"
     id="layer104-2">
    <path
       style="fill:none;stroke:#ffffff;stroke-width:20;stroke-miterlimit:4;stroke-dasharray:none;stroke-opacity:1"
       d="m 281.61819,273.6049 c -4.125,-0.375 -8.87891,0.1211 -13.37891,1.6211 -1.71204,0.7134 -3.01667,1.9786 -3.98438,3.8867 -2.12677,0.3048 -4.50461,0.5449 -6.36718,0.918 -3.61719,0.7246 -6.73828,1.5898 -9.39453,2.6758 -2.65625,1.0859 -4.83985,2.4004 -6.58203,3.9843 -1.74219,1.584 -3.03126,3.4454 -3.90626,5.6641 -0.4375,1.1094 -0.78613,2.3001 -1.01562,3.5938 -0.68848,3.8811 -0.45313,8.625 0.625,14.4726 0.71875,3.8985 1.81641,8.2988 3.26172,13.2422 1.44531,4.9434 3.24609,10.4375 5.37109,16.5625 6.4395,18.8231 22.49137,76.3464 39.80469,141.4648 4.74847,18.2638 9.54951,36.9285 14.19922,55.5274 2.30101,9.0944 4.55281,17.5538 6.85547,26.4453 4.41578,17.6704 8.62306,34.1411 12.55859,49.082 0.0198,0.0751 0.0388,0.1594 0.0586,0.2344 0.82518,4.3956 1.53247,8.5889 2.51953,13.2422 3.02949,13.8491 5.98909,24.5472 8.61328,32.1484 0.98709,4.1626 2.49644,9.9652 3.39843,13.8477 1.9293,8.6818 6.04424,18.3114 11.66016,28.125 1.36213,3.7075 2.52515,6.5328 3.33984,7.8906 0.18483,0.3479 0.43198,0.7052 0.625,1.0547 l -4.6289,-4.0625 6.75781,7.6953 c 2.78781,4.4847 6.42911,9.0408 10.3125,13.6133 0.008,0.0117 0.0116,0.0273 0.0195,0.0391 8.12055,12.0026 17.44492,21.6078 28.73047,29.3359 13.42929,13.6539 18.37698,16.7803 19.00391,12.2852 5.11162,3.2083 10.20522,5.9344 15.17578,8.0273 2.62117,1.1795 5.8209,2.2735 9.47266,3.2812 6.45543,2.6004 12.75032,4.7344 18.51562,5.7227 15.02977,2.505 166.10036,7.0858 353.9648,11.4453 5.1354,0.2272 11.5541,0.3522 18.9063,0.4297 31.3242,0.7145 61.2983,1.4418 94.1406,2.1289 194.63415,3.7003 353.38915,6.0187 469.57035,7.0313 6.6838,0.1214 12.6463,0.2297 19.375,0.3515 3.9486,0.3495 8.9535,0.6055 16.0547,0.6055 7.234,0.3288 12.5825,0.2488 16.9727,0 149.1675,2.6844 304.6595,5.4163 463.0273,8.0078 237.2608,3.669 419.9821,6.7024 576.6797,9.6484 2.1273,0.901 23.4186,1.3477 58.3203,1.3477 4.5585,0 7.5164,-0.0432 11.6016,-0.0586 552.1163,10.967 625.9924,20.8534 723.3984,53.0664 125,42 210.9922,41.9961 336.9922,0.9961 100.6922,-33.0516 173.9939,-43.0842 729.668,-54.1211 23.9198,-0.1368 41.301,-0.4114 47.9297,-0.8789 117.7313,-2.2491 259.1669,-4.6616 422.3047,-7.2461 2.5336,0.1077 4.9208,0.2539 8.1054,0.2539 5.8036,0 10.1505,-0.2608 13.7305,-0.6055 49.5664,-0.7819 90.7577,-1.4676 144.9414,-2.3046 183.447,-2.5346 389.8041,-6.0976 600.0195,-10.3321 165.7915,-2.9463 324.2133,-5.7694 437.2461,-8.0664 3.9863,0.1756 8.507,0.293 14.0625,0.293 10.9151,0 18.3354,-0.4196 22.9492,-1.0156 77.887,-1.6186 136.8738,-2.9946 169.043,-3.9844 71.2417,-2.0551 125.2355,-3.4918 167.832,-7.2656 13.0171,-0.5977 24.6111,-1.623 35.5078,-2.9102 17.5704,-1.0263 28.9328,-1.9683 31.6602,-2.8125 6.0668,-1.9158 12.514,-5.0542 19.0625,-8.9648 14.9598,-6.2018 27.3133,-14.7951 38.0078,-26.8164 8.3883,-8.4394 15.5236,-18.5948 21.9727,-30.6446 9.7916,-13.9383 17.0861,-28.1285 19.9609,-40.5859 5.2298,-21.791 12.0973,-49.193 19.2188,-77.3242 2.001,-7.8299 4.1226,-16.0371 6.25,-24.5313 24.4393,-95.5218 53.214,-202.8791 62.539,-230.1367 2.125,-6.125 3.9063,-11.6191 5.3516,-16.5625 1.4453,-4.9434 2.543,-9.3437 3.2617,-13.2422 0.3594,-1.9492 0.6318,-3.7746 0.8008,-5.4883 0.1689,-1.7136 0.2422,-3.3095 0.2148,-4.8047 -0.027,-1.4951 -0.1611,-2.8859 -0.3906,-4.1796 -0.2295,-1.2937 -0.5586,-2.4844 -0.9961,-3.5938 -0.875,-2.2187 -2.164,-4.0801 -3.9062,-5.6641 -0.8711,-0.7919 -1.8721,-1.5285 -2.9688,-2.1875 -1.0967,-0.6589 -2.3047,-1.2539 -3.6328,-1.7968 -2.6563,-1.086 -5.7773,-1.9512 -9.3945,-2.6758 -0.4982,-0.0998 -1.1823,-0.1595 -1.6992,-0.2539 -8.6429,-5.5868 -25.6235,-8.5758 -31.6407,-2.5586 -1.7541,1.949 -5.9356,12.3397 -11.0351,26.0742 -1.4213,3.3293 -2.824,6.5995 -4.3946,10.8008 -2.7808,7.439 -6.0033,16.951 -9.4922,27.5195 -3.3121,9.7955 -6.9312,20.7096 -11.0937,33.6133 -1.8325,5.5992 -3.943,12.3072 -5.8984,18.3789 -1.238,3.8695 -2.3561,7.2791 -3.6329,11.3281 -16.4876,51.6733 -35.2631,113.5331 -44.4531,150.293 -1.0537,4.2151 -2.2025,8.1133 -3.3008,12.2461 -14.9453,52.3967 -25.4745,77.136 -48.457,91.0547 -5.0096,2.1415 -10.4803,4.2864 -16.3281,6.3281 -26.4745,6.4542 -86.3943,8.376 -217.6172,8.418 -0.13,-0.0158 -0.1786,-0.0233 -0.3125,-0.0391 -18,-2 -48,-2 -65,0 -0.034,0.004 -0.044,0.0158 -0.078,0.0195 -8.7383,-0.0294 -13.6304,0.0195 -22.9102,-0.0195 -85.0941,-0.67 -228.8712,-3.5831 -392.168,-7.5781 -52.6035,-1.8213 -109.2826,-3.6555 -167.832,-5.4297 -231,-6 -526,-15 -655,-20 -27.1195,-1.0511 -61.5013,-2.2848 -92.5586,-3.457 -11.7794,-0.5031 -26.5403,-1.052 -37.4414,-1.543 -15.408,-0.4891 -43.2862,-1.5347 -65.5469,-2.3242 -20.4493,-0.7461 -35.6737,-1.2645 -55.5859,-1.9727 -57.5597,-2.1344 -119.6128,-4.5071 -173.8672,-6.6992 -21.616,-0.6723 -39.0809,-1.2999 -59.082,-1.9531 -2.4374,-0.0982 -4.8103,-0.1847 -7.3438,-0.2539 -71.4985,-2.3508 -135.7115,-4.6235 -188.5546,-6.875 -216.3907,-9.6834 -290.1938,-18.3171 -343.0274,-34.9219 -3.8715,-1.151 -7.5312,-2.0305 -11.3476,-3.0859 -59.7311,-19.3273 -105.0429,-39.2869 -152.6172,-69.1211 -1.5251,-1.3586 -3.2904,-2.3157 -5.1172,-3.125 -17.2804,-11.0539 -34.9613,-23.4671 -53.9063,-37.6758 -15.424,-11.2554 -28.72,-20.5879 -41.0742,-28.9453 -10.3405,-11.308 -37.6473,-26.4782 -68.457,-39.336 -2.3472,-1.0366 -4.7149,-2.0188 -7.0703,-2.9882 0.7769,-3.3548 -1.6709,-4.2448 -7.6954,-3.1446 -10.8742,-4.1389 -22.1159,-7.7435 -34.4921,-11.2109 -0.019,-0.005 -0.039,-0.0141 -0.059,-0.0195 -3.82,-1.7603 -8.5916,-3.3114 -14.1602,-4.3555 -0.3029,-0.0713 -0.5785,-0.1789 -0.8789,-0.2539 -1.5787,-0.568 -3.2435,-1.0986 -4.707,-1.6992 -5.4063,-2.2188 -10.0313,-4.6602 -13.9063,-7.2852 -1.9375,-1.3125 -3.6875,-2.6797 -5.2539,-4.082 -3.7286,-3.3381 -6.307,-6.9308 -8.0078,-10.7031 3.123,-7.0993 -1.2651,-14.918 -13.2422,-19.961 -0.3426,-0.1199 -0.6209,-0.1433 -0.957,-0.2539 -0.2898,-0.1465 -0.5849,-0.2784 -0.8789,-0.4101 -1.5633,-0.8427 -3.1587,-1.5567 -4.7656,-1.9336 -1.1407,-0.2676 -2.2735,-0.4102 -3.3985,-0.4102 -1.125,0 -2.2773,0.1406 -3.418,0.4102 -0.7741,0.1816 -1.5354,0.5064 -2.3046,0.8007 -2.3178,0.5231 -4.2749,1.4313 -5.6641,2.9102 -4.7003,3.1806 -8.6192,8.4289 -10.625,15.8789 -3.3006,10.7271 -16.32,20.0674 -40.3711,28.6328 -3.4221,0.9181 -6.4962,1.9487 -9.3359,3.125 -2.4013,0.7501 -4.6995,1.5074 -7.2852,2.2461 -1.4099,0.4376 -3.1073,1.1574 -4.5703,1.6406 -2.2718,0.7759 -4.6514,1.6422 -7.0312,2.5 -4.6381,1.6576 -9.0906,3.1844 -13.9844,5.1563 -8.568,-0.1045 -17.611,3.8064 -22.0117,9.1015 -30.6025,13.1288 -58.3985,27.4013 -58.3985,31.6016 0,0.5533 0.9856,0.8418 2.5,0.957 -189.7057,131.5908 -238.4995,160.4448 -539.9219,176.9141 -9.054,0.2499 -17.4775,0.6248 -24.5898,1.1328 -2.5975,0.1792 -2.6192,0.3057 -4.3945,0.4688 -79.318,3.935 -174.9258,7.3126 -293.5938,11.5234 -15.163,0.4852 -38.4298,1.309 -54.6484,1.8359 -69.1854,1.9276 -145.3423,4.2423 -228.3594,7.168 -227,8 -593.9922,19.9922 -816.9922,26.9922 -109.4549,2.9906 -191.5889,5.5146 -255.7226,7.8516 -119.95565,2.5263 -224.85355,3.9204 -312.08995,4.1015 -17.0614,-1.8151 -43.8317,-1.8537 -60.9375,-0.1953 -119.05901,-0.634 -199.46736,-3.823 -227.40232,-10.0781 -3.87333,-1.4413 -7.65775,-2.9062 -11.09376,-4.375 -22.76626,-13.7875 -33.32695,-38.1622 -48.04687,-89.5313 -1.23947,-4.631 -2.52608,-9.0301 -3.71094,-13.7695 -9.15687,-36.6275 -27.85095,-98.1811 -44.29687,-149.7461 -1.49796,-4.7534 -2.81377,-8.757 -4.25782,-13.2617 -1.80036,-5.5838 -3.75533,-11.8164 -5.44921,-16.9922 -4.30397,-13.3423 -7.98785,-24.4852 -11.38672,-34.5117 -0.67566,-2.0427 -1.48453,-4.607 -2.12891,-6.5235 -2.57226,-7.6503 -4.88672,-14.3086 -7.05078,-20.0976 -1.51074,-4.0414 -2.86667,-7.1578 -4.23828,-10.3906 -5.17978,-13.9767 -9.41922,-24.5153 -11.19141,-26.4844 -2,-2 -5.5039,-3.2383 -9.6289,-3.6133 z"
       id="path119-0"
       inkscape:connector-curvature="0" />
  </g>
</svg>
