<?xml version="1.0" encoding="UTF-8" standalone="no"?>
<!-- Generator: Adobe Illustrator 19.0.0, SVG Export Plug-In . SVG Version: 6.00 Build 0)  -->

<svg
   xmlns:dc="http://purl.org/dc/elements/1.1/"
   xmlns:cc="http://creativecommons.org/ns#"
   xmlns:rdf="http://www.w3.org/1999/02/22-rdf-syntax-ns#"
   xmlns:svg="http://www.w3.org/2000/svg"
   xmlns="http://www.w3.org/2000/svg"
   xmlns:sodipodi="http://sodipodi.sourceforge.net/DTD/sodipodi-0.dtd"
   xmlns:inkscape="http://www.inkscape.org/namespaces/inkscape"
   version="1.1"
   id="Layer_1"
   x="0px"
   y="0px"
   viewBox="-232 363.9 70 90"
   style="enable-background:new -232 363.9 70 90;"
   xml:space="preserve"
   preserveAspectRatio="xMinYMin"
   sodipodi:docname="data.svg"
   inkscape:version="0.92.3 (2405546, 2018-03-11)"><metadata
   id="metadata23"><rdf:RDF><cc:Work
       rdf:about=""><dc:format>image/svg+xml</dc:format><dc:type
         rdf:resource="http://purl.org/dc/dcmitype/StillImage" /></cc:Work></rdf:RDF></metadata><defs
   id="defs21" /><sodipodi:namedview
   pagecolor="#ffffff"
   bordercolor="#666666"
   borderopacity="1"
   objecttolerance="10"
   gridtolerance="10"
   guidetolerance="10"
   inkscape:pageopacity="0"
   inkscape:pageshadow="2"
   inkscape:window-width="1920"
   inkscape:window-height="1137"
   id="namedview19"
   showgrid="false"
   inkscape:zoom="2.6222222"
   inkscape:cx="35"
   inkscape:cy="45"
   inkscape:window-x="-8"
   inkscape:window-y="-8"
   inkscape:window-maximized="1"
   inkscape:current-layer="Layer_1" />
<style
   type="text/css"
   id="style2">
	.st0{fill:#12100B;}
</style>
<g
   id="g16"
   style="fill:#ffffff">
	<path
   class="st0"
   d="M-162,383.9l-20-20h-50v90h70V383.9z M-182,374.5l9.4,9.4h-9.4V374.5z M-169.5,446.4h-55v-75h37.5v17.5h17.5   V446.4z"
   id="path4"
   style="fill:#ffffff" />
	<path
   class="st0"
   d="M-209.5,428.9v-2.5c0-3-1.3-5.7-3.4-7.5c2.1-1.8,3.4-4.5,3.4-7.5v-2.5c0-1.4,1.1-2.5,2.5-2.5v-5   c-4.1,0-7.5,3.4-7.5,7.5v2.5c0,2.8-2.2,5-5,5v5c2.8,0,5,2.2,5,5v2.5c0,4.1,3.4,7.5,7.5,7.5v-5   C-208.4,431.4-209.5,430.3-209.5,428.9z"
   id="path6"
   style="fill:#ffffff" />
	<path
   class="st0"
   d="M-187,406.4c1.4,0,2.5,1.1,2.5,2.5v2.5c0,3,1.3,5.7,3.4,7.5c-2.1,1.8-3.4,4.5-3.4,7.5v2.5   c0,1.4-1.1,2.5-2.5,2.5v5c4.1,0,7.5-3.4,7.5-7.5v-2.5c0-2.8,2.2-5,5-5v-5c-2.8,0-5-2.2-5-5v-2.5c0-4.1-3.4-7.5-7.5-7.5V406.4z"
   id="path8"
   style="fill:#ffffff" />
	<rect
   x="-199.5"
   y="416.4"
   class="st0"
   width="5"
   height="5"
   id="rect10"
   style="fill:#ffffff" />
	<rect
   x="-192"
   y="416.4"
   class="st0"
   width="5"
   height="5"
   id="rect12"
   style="fill:#ffffff" />
	<rect
   x="-207"
   y="416.4"
   class="st0"
   width="5"
   height="5"
   id="rect14"
   style="fill:#ffffff" />
</g>
</svg>