<?xml version="1.0" encoding="utf-8"?>
<!-- Generator: Adobe Illustrator 19.0.0, SVG Export Plug-In . SVG Version: 6.00 Build 0)  -->
<svg version="1.1" id="Layer_1" xmlns="http://www.w3.org/2000/svg" xmlns:xlink="http://www.w3.org/1999/xlink" x="0px" y="0px"
	 viewBox="-232 363.9 70 90" style="enable-background:new -232 363.9 70 90;" xml:space="preserve" preserveAspectRatio="xMinYMin">
<style type="text/css">
	.st0{fill:#12100B;}
</style>
<g>
	<path class="st0" d="M-162,383.9l-20-20h-50v90h70V383.9z M-182,374.5l9.4,9.4h-9.4V374.5z M-169.5,446.4h-55v-75h37.5v17.5h17.5
		V446.4z"/>
	<path class="st0" d="M-209.5,428.9v-2.5c0-3-1.3-5.7-3.4-7.5c2.1-1.8,3.4-4.5,3.4-7.5v-2.5c0-1.4,1.1-2.5,2.5-2.5v-5
		c-4.1,0-7.5,3.4-7.5,7.5v2.5c0,2.8-2.2,5-5,5v5c2.8,0,5,2.2,5,5v2.5c0,4.1,3.4,7.5,7.5,7.5v-5
		C-208.4,431.4-209.5,430.3-209.5,428.9z"/>
	<path class="st0" d="M-187,406.4c1.4,0,2.5,1.1,2.5,2.5v2.5c0,3,1.3,5.7,3.4,7.5c-2.1,1.8-3.4,4.5-3.4,7.5v2.5
		c0,1.4-1.1,2.5-2.5,2.5v5c4.1,0,7.5-3.4,7.5-7.5v-2.5c0-2.8,2.2-5,5-5v-5c-2.8,0-5-2.2-5-5v-2.5c0-4.1-3.4-7.5-7.5-7.5V406.4z"/>
	<rect x="-199.5" y="416.4" class="st0" width="5" height="5"/>
	<rect x="-192" y="416.4" class="st0" width="5" height="5"/>
	<rect x="-207" y="416.4" class="st0" width="5" height="5"/>
</g>
</svg>
