<!DOCTYPE svg PUBLIC "-//W3C//DTD SVG 20010904//EN" "http://www.w3.org/TR/2001/REC-SVG-20010904/DTD/svg10.dtd">
<svg version="1.0" xmlns="http://www.w3.org/2000/svg" viewBox="0 0 5580 570" preserveAspectRatio="xMinYMin">
<g id="layer101" fill="#080808" stroke="none">
 <path d="M2616 539 l-88 -28 -472 -10 c-259 -6 -604 -13 -766 -16 -162 -4 -476 -10 -696 -14 -356 -8 -405 -10 -431 -26 -35 -20 -83 -90 -83 -120 0 -11 -18 -87 -39 -170 -22 -82 -38 -152 -36 -154 2 -2 20 0 39 3 35 7 35 7 76 131 22 68 40 135 40 148 0 40 33 60 103 63 84 4 1990 -54 2047 -62 69 -9 199 -67 288 -128 45 -30 97 -58 116 -62 22 -4 38 -13 41 -25 8 -25 45 -25 45 -1 0 13 13 21 43 29 24 7 74 33 111 59 78 53 166 95 246 117 56 16 106 18 740 37 179 5 402 12 495 15 645 21 797 25 804 21 5 -3 22 -1 39 4 18 4 34 5 37 1 2 -5 18 -11 34 -14 25 -5 32 -13 40 -49 20 -80 73 -243 87 -265 8 -13 22 -23 32 -23 41 0 40 17 0 183 -65 260 -75 272 -251 281 -61 3 -269 8 -462 11 -192 3 -451 8 -575 10 -124 3 -443 10 -710 16 -459 9 -489 11 -555 32 -38 12 -71 25 -73 29 -2 5 -43 8 -90 7 -66 -1 -108 -8 -176 -30z"/>
 </g>
<g id="layer102" fill="#616060" stroke="none">
 <path d="M2620 538 l-95 -29 -400 -9 c-220 -5 -647 -14 -950 -19 -302 -6 -651 -14 -774 -17 l-224 -7 -38 -34 c-23 -21 -43 -50 -48 -72 -88 -339 -90 -351 -57 -351 33 0 56 38 90 154 20 65 36 126 36 136 0 21 31 50 53 50 9 0 19 5 22 10 4 6 14 9 23 6 10 -3 116 -7 237 -11 121 -3 265 -8 320 -10 55 -2 208 -7 340 -10 132 -3 276 -7 320 -10 44 -2 195 -7 335 -11 457 -11 524 -17 616 -53 44 -17 114 -54 155 -83 41 -28 97 -59 124 -69 28 -9 51 -25 53 -33 5 -22 33 -20 39 2 3 11 21 23 47 30 23 6 71 31 107 57 73 51 147 88 234 115 61 19 117 23 570 35 105 3 246 7 315 10 69 3 215 7 325 10 110 3 259 8 330 10 72 3 229 8 349 11 121 3 223 7 227 10 4 2 10 0 13 -5 3 -4 19 -11 35 -14 25 -5 32 -14 42 -49 66 -237 87 -288 117 -288 39 0 41 18 11 128 -17 59 -36 137 -43 173 -14 70 -45 123 -86 144 -30 15 -342 25 -1535 45 -754 13 -819 16 -902 41 -38 12 -72 25 -77 30 -21 20 -159 8 -256 -23z m183 5 c-13 -2 -33 -2 -45 0 -13 2 -3 4 22 4 25 0 35 -2 23 -4z m-88 -8 c-5 -2 -43 -13 -83 -25 -66 -19 -75 -25 -88 -55 -18 -45 -18 -126 1 -172 20 -47 19 -48 -10 -24 -31 24 -83 37 -96 24 -6 -6 -29 -3 -62 8 -29 10 -70 18 -93 19 -39 0 -41 2 -52 39 -15 49 -15 68 0 77 6 4 54 11 105 15 57 5 111 16 136 28 50 23 204 69 232 69 11 0 16 -1 10 -3z m222 -20 c43 -14 86 -25 95 -25 9 0 32 -9 51 -20 23 -14 64 -22 136 -29 110 -9 125 -17 114 -61 -16 -65 -20 -70 -65 -70 -24 -1 -66 -9 -94 -18 -36 -13 -56 -15 -67 -8 -12 8 -28 5 -62 -12 -25 -12 -45 -21 -45 -19 0 1 7 23 14 49 17 54 8 150 -16 174 -8 9 -48 26 -89 39 -41 13 -69 24 -62 24 7 1 47 -10 90 -24z m-69 -22 c66 -31 104 -115 79 -176 -55 -131 -266 -138 -328 -10 -23 47 -20 79 11 130 46 76 144 99 238 56z m-218 -9 c-42 -36 -60 -74 -60 -130 0 -89 49 -156 137 -189 25 -9 31 -14 17 -14 -26 -1 -136 53 -156 77 -21 23 -48 109 -47 146 0 17 5 46 12 65 10 29 21 37 62 52 68 24 71 23 35 -7z m339 -18 c25 -25 27 -131 3 -191 -18 -45 -27 -54 -88 -87 -38 -21 -78 -37 -89 -37 -11 0 -1 7 22 16 59 20 120 91 129 149 10 68 -2 110 -46 154 l-39 39 46 -14 c26 -8 53 -21 62 -29z m-529 15 c0 -13 -35 -20 -136 -27 -55 -4 -95 -12 -106 -21 -9 -8 -19 -37 -23 -64 l-7 -49 -71 0 c-40 0 -364 9 -722 20 -357 11 -704 21 -770 23 -66 1 259 4 723 5 463 1 842 4 842 7 0 3 -7 17 -16 30 -9 14 -14 34 -11 46 3 13 1 19 -6 16 -13 -4 -14 -42 -3 -67 5 -13 -103 -15 -939 -15 l-945 0 0 28 c0 15 1 27 3 27 18 2 1912 39 2017 40 79 0 146 3 149 6 8 7 21 4 21 -5z m922 -18 c13 -12 14 -20 6 -43 -5 -16 -16 -34 -24 -41 -12 -9 -14 -6 -14 19 0 38 -22 52 -82 52 -54 0 -159 17 -169 27 -5 5 54 7 129 5 104 -3 141 -7 154 -19z m983 -3 c297 -5 627 -13 733 -16 l193 -6 -3 -25 -3 -25 -946 -1 -945 -2 10 28 c8 20 7 33 -3 48 l-13 21 219 -6 c120 -3 461 -11 758 -16z m-4137 -57 c-2 -29 -8 -39 -23 -41 -31 -6 -63 -41 -69 -77 -5 -26 -11 -33 -23 -28 -36 14 9 147 59 171 46 22 59 16 56 -25z m5079 -10 c-3 -10 -5 -2 -5 17 0 19 2 27 5 18 2 -10 2 -26 0 -35z m79 28 c34 -20 58 -66 67 -123 4 -30 2 -37 -14 -41 -14 -4 -19 0 -19 15 0 34 -33 78 -65 86 -26 7 -30 13 -33 45 -4 44 14 49 64 18z m-461 -58 c-66 -2 -412 -12 -770 -23 -357 -11 -682 -20 -721 -20 -71 0 -71 0 -66 25 l4 25 837 -2 c460 -1 782 -4 716 -5z m-2335 -160 c47 -30 104 -59 128 -66 23 -6 42 -15 42 -19 0 -24 -73 8 -174 74 -48 32 -94 58 -101 58 -8 0 -17 5 -21 11 -13 22 41 -3 126 -58z m470 43 c-25 -12 -80 -46 -124 -74 -43 -29 -84 -52 -91 -52 -8 0 -20 -3 -29 -6 -9 -3 -16 -1 -16 5 0 6 8 11 18 11 18 0 95 41 196 103 33 21 67 37 75 36 9 0 -4 -10 -29 -23z m-155 -16 c-54 -56 -156 -66 -229 -20 -48 29 -40 38 9 9 66 -39 182 -26 224 25 8 9 16 16 19 16 3 0 -7 -13 -23 -30z m-2812 -96 c-21 -63 -40 -104 -48 -104 -11 0 -10 13 5 68 10 37 23 86 29 109 9 33 15 40 30 36 18 -5 17 -11 -16 -109z m5400 2 c25 -94 27 -123 7 -111 -5 3 -23 51 -40 107 -25 80 -29 103 -18 109 19 12 23 4 51 -105z m-2703 -31 c0 -19 -4 -35 -10 -35 -5 0 -10 16 -10 35 0 19 5 35 10 35 6 0 10 -16 10 -35z"/>
 <path d="M2734 460 c-31 -12 -54 -49 -54 -88 0 -44 14 -68 50 -87 43 -22 76 -18 112 14 84 75 -2 204 -108 161z m82 -16 c54 -26 63 -91 18 -131 -34 -31 -83 -30 -118 2 -44 41 -31 105 27 130 40 18 33 18 73 -1z"/>
 <path d="M2742 408 c-35 -35 14 -102 57 -79 45 25 33 91 -17 91 -16 0 -33 -5 -40 -12z m66 -30 c2 -19 -2 -28 -18 -33 -37 -12 -64 27 -38 53 21 21 53 10 56 -20z"/>
 </g>
<g id="layer103" fill="#999999" stroke="none">
 <path d="M2655 545 c-44 -14 -105 -30 -135 -35 -30 -5 -566 -19 -1190 -31 -914 -17 -1140 -24 -1162 -35 -40 -21 -75 -73 -83 -124 -4 -25 -23 -101 -41 -169 -20 -73 -30 -129 -25 -134 5 -5 19 -7 32 -5 19 3 28 20 61 118 21 63 38 123 38 135 1 35 26 67 61 79 26 9 267 4 1064 -20 567 -18 1044 -35 1060 -39 66 -16 184 -71 253 -117 89 -60 182 -96 182 -70 0 4 -22 13 -49 19 -29 7 -82 34 -128 65 -43 30 -93 60 -112 68 -30 12 -32 15 -15 22 15 6 13 7 -9 5 -15 -3 -57 4 -94 14 -49 14 -115 20 -248 24 -242 6 -1528 44 -1635 48 -47 2 321 3 817 3 496 -1 899 2 894 7 -4 4 -445 7 -979 7 l-972 0 0 29 0 29 92 6 c78 5 1680 37 1802 36 32 0 37 -2 26 -15 -6 -8 -10 -22 -7 -32 4 -15 5 -14 6 3 0 12 7 26 14 32 7 6 80 13 162 17 137 6 148 5 125 -9 -32 -19 -17 -21 18 -2 50 27 246 76 302 76 49 0 226 -44 290 -73 43 -20 45 -20 25 -3 -19 16 -11 17 125 11 80 -4 149 -11 154 -16 6 -5 15 -9 20 -9 6 0 4 5 -4 10 -11 7 -3 10 30 10 122 1 1735 -31 1798 -36 72 -6 72 -6 72 -35 l0 -29 -951 0 -950 0 7 23 c6 21 6 21 -14 -3 l-20 -25 896 -5 c494 -3 841 -6 772 -8 -69 -1 -255 -6 -415 -12 -257 -8 -443 -14 -1172 -35 -121 -4 -200 -11 -240 -22 -32 -9 -68 -16 -80 -16 -13 1 -23 -3 -23 -9 0 -5 -16 -16 -36 -24 -19 -8 -72 -39 -117 -69 -45 -30 -96 -57 -114 -61 -27 -5 -32 -3 -36 17 -2 13 -4 2 -4 -26 -1 -27 1 -42 4 -33 2 10 21 22 43 28 22 6 70 31 107 56 84 57 139 85 223 114 63 21 97 23 1100 54 805 24 1043 29 1069 20 37 -13 61 -38 61 -65 0 -15 57 -204 75 -252 8 -19 65 -24 65 -5 0 6 -15 71 -34 142 -19 72 -37 148 -41 169 -7 43 -52 100 -92 115 -18 7 -425 18 -1133 31 -608 12 -1134 23 -1170 25 -36 3 -99 17 -140 31 -110 38 -178 41 -275 10z m-2425 -145 c0 -34 -3 -40 -20 -40 -26 0 -70 -43 -70 -67 0 -35 -75 -265 -88 -270 -29 -12 -29 -10 59 329 11 43 60 88 95 88 21 0 24 -4 24 -40z m5077 -12 c-2 -13 -4 -5 -4 17 -1 22 1 32 4 23 2 -10 2 -28 0 -40z m103 15 c29 -30 39 -49 44 -88 4 -27 21 -97 37 -155 33 -119 35 -140 14 -140 -19 0 -86 212 -71 222 8 5 7 8 -1 8 -6 0 -15 15 -18 33 -9 41 -22 57 -62 74 -28 11 -33 18 -33 48 0 31 3 35 26 35 17 0 40 -13 64 -37z m-5072 -40 c-10 -2 -28 -2 -40 0 -13 2 -5 4 17 4 22 1 32 -1 23 -4z m4920 0 c-10 -2 -26 -2 -35 0 -10 3 -2 5 17 5 19 0 27 -2 18 -5z"/>
 <path d="M2744 529 c10 -6 34 -9 52 -6 19 3 32 2 29 -3 -3 -4 6 -11 20 -14 37 -9 92 -63 105 -102 16 -49 5 -98 -33 -142 -17 -20 -22 -28 -9 -18 12 11 22 14 22 8 0 -6 -17 -25 -37 -42 -21 -18 -28 -27 -17 -21 50 25 94 104 94 170 0 39 -39 109 -71 128 -20 12 -25 19 -16 26 7 5 3 6 -12 2 -14 -5 -21 -3 -17 3 8 13 -27 22 -84 22 -37 -1 -42 -3 -26 -11z"/>
 <path d="M2675 520 c-20 -9 -20 -9 0 -9 16 -1 12 -6 -16 -25 -48 -33 -73 -91 -66 -153 3 -26 10 -49 16 -51 6 -2 8 -9 4 -15 -3 -7 -2 -9 2 -4 5 4 20 -3 34 -15 18 -17 16 -12 -7 15 -17 20 -35 49 -38 62 -16 65 34 152 102 177 23 8 30 15 21 20 -15 9 -26 9 -52 -2z"/>
 <path d="M2555 470 c-26 -28 -15 -31 12 -3 12 13 19 23 14 23 -4 0 -16 -9 -26 -20z"/>
 <path d="M2709 433 l-24 -28 30 25 c17 14 32 26 34 28 2 1 0 2 -6 2 -5 0 -20 -12 -34 -27z"/>
 <path d="M2293 443 c15 -2 37 -2 50 0 12 2 0 4 -28 4 -27 0 -38 -2 -22 -4z"/>
 <path d="M3218 443 c12 -2 32 -2 45 0 12 2 2 4 -23 4 -25 0 -35 -2 -22 -4z"/>
 <path d="M3012 410 c0 -19 2 -27 5 -17 2 9 2 25 0 35 -3 9 -5 1 -5 -18z"/>
 <path d="M2533 370 c0 -30 2 -43 4 -27 2 15 2 39 0 55 -2 15 -4 2 -4 -28z"/>
 <path d="M2775 413 c11 -3 27 -10 35 -17 13 -10 13 -9 1 7 -7 9 -23 16 -35 16 -20 -1 -20 -2 -1 -6z"/>
 <path d="M2737 403 c-13 -13 -7 -51 11 -64 15 -13 16 -12 3 3 -7 10 -11 29 -9 43 6 27 5 29 -5 18z"/>
 <path d="M2682 370 c0 -19 2 -27 5 -17 2 9 2 25 0 35 -3 9 -5 1 -5 -18z"/>
 <path d="M2847 317 l-17 -32 20 24 c17 20 26 41 18 41 -2 0 -11 -15 -21 -33z"/>
 <path d="M2712 305 c15 -16 29 -27 31 -24 3 2 -10 15 -27 28 l-31 24 27 -28z"/>
 <path d="M2556 262 c5 -21 4 -23 -15 -13 -34 19 -24 6 17 -21 82 -54 92 -60 92 -55 0 3 -16 15 -35 27 -20 12 -42 36 -50 54 -9 19 -13 22 -9 8z"/>
 <path d="M2990 260 c0 -7 -17 -29 -37 -48 l-38 -36 34 20 c31 18 58 60 46 72 -3 3 -5 -1 -5 -8z"/>
 <path d="M2620 247 c0 -2 15 -16 33 -33 l32 -29 -29 33 c-28 30 -36 37 -36 29z"/>
 </g>
<g id="layer104" fill="#e6e6e6" stroke="none">
 <path d="M2725 563 c-11 -3 -54 -17 -95 -30 -63 -22 -101 -27 -240 -33 l-165 -6 146 -2 c138 -2 152 0 245 29 68 21 121 30 169 31 49 0 62 3 45 8 -28 9 -75 10 -105 3z"/>
 <path d="M2930 524 c41 -13 80 -23 85 -23 6 1 -24 12 -65 25 -41 13 -79 23 -85 23 -5 -1 24 -12 65 -25z"/>
 <path d="M3103 493 c43 -2 110 -2 150 0 40 1 5 3 -78 3 -82 0 -115 -2 -72 -3z"/>
 <path d="M1848 483 c68 -2 176 -2 240 0 64 1 9 3 -123 3 -132 0 -185 -2 -117 -3z"/>
 <path d="M3503 483 c59 -2 155 -2 215 0 59 1 10 3 -108 3 -118 0 -167 -2 -107 -3z"/>
 <path d="M1343 473 c64 -2 170 -2 235 0 64 1 11 3 -118 3 -129 0 -182 -2 -117 -3z"/>
 <path d="M3973 473 c64 -2 170 -2 235 0 64 1 11 3 -118 3 -129 0 -182 -2 -117 -3z"/>
 <path d="M853 463 c65 -2 168 -2 230 0 62 1 9 3 -118 3 -126 0 -177 -2 -112 -3z"/>
 <path d="M4473 463 c65 -2 168 -2 230 0 62 1 9 3 -118 3 -126 0 -177 -2 -112 -3z"/>
 <path d="M250 453 c0 -5 69 -7 152 -5 279 4 306 8 76 10 -126 1 -228 -1 -228 -5z"/>
 <path d="M4905 453 c118 -7 415 -7 415 0 0 4 -105 6 -232 5 -128 -1 -210 -3 -183 -5z"/>
 <path d="M158 435 c-34 -19 -71 -79 -65 -107 4 -21 4 -20 6 4 1 33 45 86 86 104 16 7 23 13 15 13 -8 0 -27 -6 -42 -14z"/>
 <path d="M5350 443 c59 -19 92 -58 104 -123 12 -64 39 -160 43 -156 3 3 -2 28 -10 58 -9 29 -19 75 -23 101 -8 59 -66 128 -105 126 -14 0 -18 -3 -9 -6z"/>
 <path d="M221 360 c-48 -18 -81 -51 -81 -81 0 -10 -12 -55 -26 -99 -14 -45 -24 -84 -21 -86 2 -2 16 38 31 88 15 51 30 104 34 118 14 47 47 53 287 54 l220 0 -195 3 c-107 2 -197 7 -200 12 -3 5 -25 1 -49 -9z"/>
 <path d="M5280 370 c0 -6 -77 -11 -197 -13 l-198 -3 229 0 c193 -1 224 1 205 12 -29 16 -39 17 -39 4z"/>
 <path d="M753 343 c42 -2 112 -2 155 0 42 1 7 3 -78 3 -85 0 -120 -2 -77 -3z"/>
 <path d="M4643 343 c42 -2 112 -2 155 0 42 1 7 3 -78 3 -85 0 -120 -2 -77 -3z"/>
 <path d="M5373 330 c15 -12 27 -31 27 -43 1 -12 14 -60 30 -107 33 -95 33 -84 0 35 -28 103 -41 129 -65 134 -16 2 -15 -1 8 -19z"/>
 <path d="M1078 333 c46 -2 118 -2 160 0 42 1 5 3 -83 3 -88 0 -123 -2 -77 -3z"/>
 <path d="M4318 333 c46 -2 118 -2 160 0 42 1 5 3 -83 3 -88 0 -123 -2 -77 -3z"/>
 <path d="M1408 323 c45 -2 119 -2 165 0 45 1 8 3 -83 3 -91 0 -128 -2 -82 -3z"/>
 <path d="M3978 323 c45 -2 119 -2 165 0 45 1 8 3 -83 3 -91 0 -128 -2 -82 -3z"/>
 <path d="M1738 313 c45 -2 119 -2 165 0 45 1 8 3 -83 3 -91 0 -128 -2 -82 -3z"/>
 <path d="M3658 313 c46 -2 118 -2 160 0 42 1 5 3 -83 3 -88 0 -123 -2 -77 -3z"/>
 <path d="M2073 303 c37 -2 97 -2 135 0 37 2 6 3 -68 3 -74 0 -105 -1 -67 -3z"/>
 <path d="M3237 300 c-27 -5 -52 -12 -55 -16 -4 -4 7 -3 23 1 17 4 102 11 190 15 l160 7 -135 0 c-74 0 -157 -3 -183 -7z"/>
 <path d="M62 208 c-12 -50 -21 -92 -19 -94 6 -6 49 164 45 175 -1 6 -13 -31 -26 -81z"/>
 <path d="M2293 293 c9 -2 25 -2 35 0 9 3 1 5 -18 5 -19 0 -27 -2 -17 -5z"/>
 <path d="M2426 257 c45 -18 121 -59 169 -90 48 -31 93 -57 98 -57 6 0 -16 16 -49 36 -32 19 -66 41 -74 49 -14 12 -116 66 -122 65 -2 -1 -20 6 -40 14 -21 9 -43 16 -50 16 -7 0 23 -15 68 -33z"/>
 <path d="M3130 271 c-39 -12 -111 -50 -161 -86 -57 -41 -104 -66 -144 -76 -27 -8 -26 -8 8 -4 25 2 67 23 121 59 45 31 111 68 147 82 81 33 95 45 29 25z"/>
 <path d="M5501 145 c0 -5 6 -35 14 -65 8 -30 15 -56 15 -58 0 -2 -10 -2 -22 0 -14 2 -26 15 -35 38 -12 32 -13 32 -7 5 8 -40 23 -57 48 -53 16 2 20 9 18 29 -3 29 -30 119 -31 104z"/>
 <path d="M26 78 c-11 -43 -7 -68 12 -68 20 0 42 18 42 35 0 5 -5 2 -11 -7 -5 -10 -17 -18 -26 -18 -13 0 -14 8 -9 40 7 43 2 54 -8 18z"/>
 </g>

</svg>